<?xml version="1.0" encoding="utf-8"?>
<!-- Generator: Adobe Illustrator 26.0.1, SVG Export Plug-In . SVG Version: 6.00 Build 0)  -->
<svg version="1.1" id="Layer_1" xmlns="http://www.w3.org/2000/svg" xmlns:xlink="http://www.w3.org/1999/xlink" x="0px" y="0px"
	 viewBox="0 0 146.8 129.9" style="enable-background:new 0 0 146.8 129.9;" xml:space="preserve">
<style type="text/css">
	.st0{fill:#FFFFFF;}
</style>
<path class="st0" d="M12.4,42.9l34.8,36.7c1.3,1.4,3.1,2.2,5.1,2.1c9.7-0.2,39.7-1.7,43.6,0.1c3.3,1.5,38.3,22.1,47.7,28
	c1.7,1.1,2.9,2.8,3.2,4.8c0.6,4-0.1,9.9-9.3,7.5c-0.6-0.2-1.2-0.4-1.8-0.8c-17.3-10.7-37.2-25.1-44.6-26
	c-5.8-0.7-15.9,15.9-30.9,15.9c-8.2,0-45.9-46-58.1-58.6c-2.4-2.4-2.7-6.4-0.5-8.9c0.4-0.4,0.7-0.7,1.1-0.8
	C4.7,42.3,5.9,37.9,12.4,42.9z"/>
<ellipse class="st0" cx="20.8" cy="31.7" rx="11.1" ry="10.2"/>
<path class="st0" d="M25,50.3l27.1,26.2L93.4,75L132,98.6c0,0,7.4,3.2,9.7-2.4s0-8,0-8L98.4,64.4l-41,1.2l-23-22.4
	C34.5,43.2,24.1,39.6,25,50.3z"/>
<path class="st0" d="M83.9,53.6l0-26.9c0-1.2-1-2.2-2.2-2.2H66.1c-1.2,0-2.2,1-2.2,2.2v9.5c0,1-0.6,1.9-1.6,2.2l-0.2,0.1
	c-0.9,0.2-1.8-0.1-2.3-0.9L47.2,19c-0.7-1-0.5-2.3,0.4-3.1l1.5-1.2c0.6-0.5,3.1,0.8,4,1.1c0,0,0.1,0,0.1,0l7.5,2.2
	c0.2,0.1,0.5,0.1,0.8,0.2l28.7,0.6c0.3,0,0.6,0.1,0.8,0.4c0.5,0.6,1.1,2,1,5.3c-0.2,6.6,0.1,22.9,0,29.8c0,1.4-1.2,2.4-2.5,2.2
	l-3.7-0.6C84.7,55.7,83.9,54.7,83.9,53.6z"/>
</svg>
