<svg width="80" height="80" viewBox="0 0 80 80" fill="none" xmlns="http://www.w3.org/2000/svg">
<g clip-path="url(#clip0_824_8)">
<path d="M39.9441 69.6335C28.8842 69.6335 17.8242 69.6335 6.7643 69.6335C2.01635 69.6335 -1 66.6172 -1 61.8692C-1 47.7929 -1 33.7725 -1 19.6962C-1 14.9482 2.01635 11.9319 6.82016 11.9319C28.9959 11.9319 51.2275 11.9319 73.4033 11.9319C77.9278 11.9319 81 15.0041 81 19.5286C81 33.7166 81 47.8488 81 62.0368C81 66.5613 77.8719 69.6335 73.4033 69.6335C62.2316 69.6335 51.1158 69.6335 39.9441 69.6335ZM7.65804 16.7916C7.60218 16.9033 7.54632 16.9591 7.49046 17.0708C8.21662 17.7411 8.94278 18.3556 9.66894 19.0259C19.0531 28.4101 28.4373 37.8501 37.8774 47.2902C39.3856 48.7984 40.782 48.7984 42.2902 47.2902C52.233 37.3474 62.1199 27.4046 72.0627 17.4619C72.2302 17.2943 72.3978 17.0708 72.6213 16.7916C50.7807 16.7916 29.2193 16.7916 7.65804 16.7916ZM7.49046 64.718C29.1635 64.718 50.7807 64.718 72.4537 64.718C65.5831 57.9033 58.7684 51.1444 51.9537 44.3856C49.9428 46.3965 47.8202 48.4632 45.6975 50.5858C42.1785 54.0491 37.7098 54.0491 34.2466 50.5858C32.124 48.4632 30.0014 46.3406 28.0463 44.3856C21.2316 51.1444 14.4169 57.9033 7.49046 64.718ZM3.85967 61.1431C10.6744 54.3842 17.4891 47.5695 24.3597 40.8106C17.4891 33.9959 10.6185 27.1812 3.85967 20.4223C3.85967 33.9401 3.85967 47.6253 3.85967 61.1431ZM76.0845 61.1431C76.0845 47.6253 76.0845 33.9401 76.0845 20.5899C69.3256 27.2371 62.5109 33.9959 55.5845 40.8106C62.5109 47.6253 69.3256 54.4401 76.0845 61.1431Z" fill="white"/>
</g>
<defs>
<clipPath id="clip0_824_8">
<rect width="80" height="80" fill="white"/>
</clipPath>
</defs>
</svg>
