<?xml version="1.0" encoding="utf-8"?>
<!-- Generator: Adobe Illustrator 26.0.1, SVG Export Plug-In . SVG Version: 6.00 Build 0)  -->
<svg version="1.1" id="Layer_1" xmlns="http://www.w3.org/2000/svg" xmlns:xlink="http://www.w3.org/1999/xlink" x="0px" y="0px"
	 viewBox="0 0 146.8 129.9" style="enable-background:new 0 0 146.8 129.9; fill:#fff;" xml:space="preserve">
<path d="M138.2,111.2L79.9,49.8c-2.7-2.9-6.7-3.8-10.3-2.8l-8.7-9.2c-0.2-0.2-0.4-0.4-0.6-0.6c5-8.8,4-20.2-3.4-28
	C48-0.2,33-0.6,23.6,8.4s-9.9,23.9-0.9,33.3c8.2,8.7,21.5,9.7,30.9,2.9c0,0,0,0,0,0.1l9,9.5c-0.9,3.3-0.1,7,2.4,9.7l58.2,61.4
	c3.9,4.1,10.4,4.3,14.5,0.4C141.9,121.8,142,115.3,138.2,111.2z M26.5,38.1c-7-7.4-6.7-19,0.7-26s19-6.7,26,0.7s6.7,19-0.7,26
	S33.5,45.5,26.5,38.1z M115.9,112.2L79.6,73.9c-2.5-2.6-2.4-6.7,0.2-9.2c2.6-2.5,6.7-2.4,9.2,0.2l36.4,38.3c2.5,2.6,2.4,6.7-0.2,9.2
	C122.5,114.9,118.4,114.8,115.9,112.2z"/>
</svg>
