<?xml version="1.0" encoding="utf-8"?>
<!-- Generator: Adobe Illustrator 26.0.1, SVG Export Plug-In . SVG Version: 6.00 Build 0)  -->
<svg version="1.1" id="Layer_1" xmlns="http://www.w3.org/2000/svg" xmlns:xlink="http://www.w3.org/1999/xlink" x="0px" y="0px"
	 viewBox="0 0 146.8 129.9" style="enable-background:new 0 0 146.8 129.9;" xml:space="preserve">
<style type="text/css">
	.st0{fill:none;stroke:#000000;stroke-width:3;stroke-miterlimit:10;}
</style>
<g>
	<path class="st0" d="M32.4,94.1c-2.1-0.7-4-1.1-5.7-1.9c-1.6-0.8-3.1-2-4.7-3.1c-0.3,3.4,0,6.7,2.6,9.2
		c6.3,6.2,12.7,12.4,19.2,18.4c2.5,2.4,5.9,2.8,9.3,2.6c0.4,0,0.9-0.5,1.1-0.9c1.4-2.7,3.7-4.1,6.8-4.1c1.9,0,3.9-0.1,5.8,0
		c4.1,0.1,7.2,3.1,7.2,6.9c0,3.8-3.1,6.9-7.2,7c-2,0.1-4,0.1-5.9,0c-2.6-0.1-4.7-1.2-6.2-3.3c-0.3-0.4-1.1-0.9-1.6-0.8
		c-6.1,0.4-10.9-2-15-6.2c-5.2-5.3-10.7-10.4-16.1-15.5c-3.1-3-4.7-6.7-4.7-10.9c0-2.9,0-5.9,0-8.8c0-0.5-0.1-1.2-0.4-1.6
		c-1.2-1.4-1.6-3-1.5-4.7c0.1-1.7,0-3.4,0-5.1c0-2,0.8-3.4,2.4-4.6c0.5-0.4,0.9-1,1.1-1.5c0.9-2.5,2.3-4.6,4.2-6.5
		c0.6-0.5,1-1.5,1-2.2c0-5.7-0.1-11.3,1.5-16.8c5.8-20.3,19.4-33,40.9-36.9c25.5-4.6,50.6,10.6,57.7,34.5c1.8,6.2,2.2,12.4,2,18.8
		c0,1.3,0.3,2.2,1.3,3.1c1.1,1,2,2.3,2.7,3.6c1,1.9,1.6,3.9,3.5,5.3c0.7,0.5,1.1,1.9,1.2,2.9c0.2,2.3,0.1,4.5,0,6.8
		c0,1.7-0.9,3-2.2,4.1c-0.6,0.5-1.1,1.2-1.4,1.9c-2.2,5.6-6.3,9.1-12.4,10.2c-0.4,0.1-0.7,0.1-1.1,0.1c0-13.1,0-26.1,0-39.3
		c1.2,0.2,2.3,0.4,3.6,0.6c0.7-17.2-5.6-31.1-20.4-40.9C86,4.1,65.7,3.9,50.6,13.2C34.6,22.9,27.5,39.6,29,55
		c1.1-0.2,2.2-0.4,3.4-0.6C32.4,67.6,32.4,80.6,32.4,94.1z"/>
	<path d="M37.4,93.7c0-13.1,0-26.2,0-39.2c2.6-0.1,4.6,1.9,4.7,4.8c0,2.9,0,5.8,0,8.6c0,6.9,0,13.9,0,20.8
		C42.1,91.7,40.4,93.5,37.4,93.7z"/>
	<path d="M112.7,54.5c0,13.1,0,26.2,0,39.2c-2.8,0-4.7-1.9-4.7-4.8c0-5.3,0-10.6,0-15.9c0-4.5,0-9,0-13.6
		C108,56.6,109.9,54.6,112.7,54.5z"/>
</g>
</svg>
