<?xml version="1.0" encoding="utf-8"?>
<!-- Generator: Adobe Illustrator 26.0.1, SVG Export Plug-In . SVG Version: 6.00 Build 0)  -->
<svg version="1.1" id="Layer_1" xmlns="http://www.w3.org/2000/svg" xmlns:xlink="http://www.w3.org/1999/xlink" x="0px" y="0px"
	 viewBox="0 0 146.8 129.9" style="enable-background:new 0 0 146.8 129.9;" xml:space="preserve">
<style type="text/css">
	.st0{fill:#FFFFFF;stroke:#FFFFFF;stroke-width:3;stroke-miterlimit:10;}
</style>
<g>
	<path class="st0" d="M119.8,46.4c0,8.3-2.6,15.8-6.8,22.9c-11,18.9-21.9,37.8-32.8,56.7c-0.6,1.1-1.4,1.9-2.7,1.9
		c-1.4,0-2.2-0.8-2.8-1.9C63.5,106.5,52.3,87.1,41,67.6c-4.6-7.9-6.6-16.5-5.6-25.6C37.4,24.1,50.3,9.2,67.7,5.2
		c21.3-4.9,42,6.3,49.6,26.9C119,36.7,119.8,41.5,119.8,46.4z M77.5,119.4c0.2-0.4,0.4-0.6,0.5-0.9C88.3,100.7,98.7,82.9,109,65
		c5.8-10.1,6.9-20.7,2.7-31.6c-6.9-18.1-25.8-27.4-44.5-22.2C53,15.2,42.5,28,41,42.9c-0.8,7.7,0.9,15,4.8,21.7
		c9.1,15.8,18.2,31.5,27.3,47.3C74.5,114.4,76,116.8,77.5,119.4z"/>
	<path class="st0" d="M97.3,46.4C97,57.7,88.1,66.2,76.9,66c-10.6-0.2-19.4-9.3-19.1-19.8C58,35,66.9,26.3,77.9,26.6
		C88.7,26.8,97.5,35.8,97.3,46.4z M91.6,46.3c0-7.7-6.3-14.1-14.1-14.1c-7.7,0-14,6.3-14.1,14c0,7.8,6.3,14.1,14,14.1
		C85.2,60.4,91.5,54.1,91.6,46.3z"/>
</g>
</svg>
