<?xml version="1.0" encoding="utf-8"?>
<!-- Generator: Adobe Illustrator 26.0.1, SVG Export Plug-In . SVG Version: 6.00 Build 0)  -->
<svg version="1.1" id="Layer_1" xmlns="http://www.w3.org/2000/svg" xmlns:xlink="http://www.w3.org/1999/xlink" x="0px" y="0px"
	 viewBox="0 0 146.8 129.9" style="enable-background:new 0 0 146.8 129.9;" xml:space="preserve">
<style type="text/css">
	.st0{fill:#FFFFFF;}
</style>
<g>
	<path class="st0" d="M45.3,19.3c-5.5-2.1-9.5-5.6-11.9-10.7C32,5.9,31.4,3.1,31.4,0c2.8,0,5.5,0,8.1,0c0.9,9.5,8.8,12.9,14.6,11.8
		C51.9,8.2,50.5,4.4,50.5,0c2.8,0,5.4,0,7.9,0c0.7,2,1,4,2,5.7c2.3,4.1,5.8,6.3,10.6,6.2c6.6-0.1,13.1,0.5,19.4,2.5
		c16.9,5.3,29.2,15.9,36.8,31.8c0.8,1.7,1.4,3.5,2.2,5.2c0.3,0.6,0.9,1.2,1.5,1.4c11,3.2,16.6,14.2,12.4,24.8
		c-2.2,5.7-6.4,9.3-12.3,10.9c-1,0.3-1.5,0.8-1.9,1.7c-8.9,22.7-25.4,36.2-49.8,38.9c-27,3-52.2-13.3-61.2-39
		c-0.3-1-0.9-1.3-1.8-1.6c-11-3.2-16.5-14.4-12.2-25c2.2-5.5,6.4-9,12.2-10.6c0.9-0.3,1.5-0.7,1.8-1.6c4.9-13.7,13.6-24.2,26.1-31.5
		C44.6,19.8,44.8,19.6,45.3,19.3z M60,34c0.1,0.7,0.2,1.4,0.3,2c1.1,7,7.6,12.2,14.5,11.5c7.4-0.7,12.8-6.9,12.6-14.2
		c-0.3-7.1-6.1-12.9-13.3-13c-3,0-6.1,0.1-9,0.7c-20.4,4.2-33.7,16.3-40,36.2c-1,3.1-0.9,3.1-4.3,3.4c-7.9,0.6-12.3,8.8-8.2,15.4
		c2.1,3.4,5.2,5,9.2,4.8c1.8-0.1,2.5,0.6,3,2.3c1.7,6.9,4.7,13.2,9.3,18.7c12.7,15.3,29.1,21.9,48.7,18.3c20-3.7,33.1-16,39.4-35.4
		c0.4-1.2,0.4-2.9,1.2-3.5c0.9-0.7,2.5-0.4,3.8-0.5c5.6-0.4,10-6.1,9-11.6c-0.9-5.3-4.9-8.6-10.9-8.6c-1.6,0-2.2-0.5-2.6-2.1
		c-3.9-14.8-12.7-25.8-26.3-32.8c-0.8-0.4-1.7-0.8-2.9-1.4c2.3,5.2,2.8,10.1,1.4,15.1c-1.4,5-4.2,9.1-8.4,12.2
		C79.3,57,69.5,57.3,62,52.5C54.3,47.6,51.3,38.6,52,34C54.6,34,57.3,34,60,34z"/>
	<path class="st0" d="M86.6,89.5c2.4,1.4,4.7,2.7,7.2,4.2c-4.6,7.2-11.1,11-19.5,11.4c-8.1,0.4-17.6-4.9-20.5-11.5
		c2.3-1.3,4.6-2.7,7-4.1c3.1,4.6,7.4,7.3,13,7.3C79.3,96.8,83.5,94.1,86.6,89.5z"/>
	<path class="st0" d="M111.2,72.5c-2.7,0-5.1,0-7.5,0c-0.3,0-0.8-0.5-0.9-0.9c-0.8-2.9-2.7-4.5-5.3-4.4c-2.7,0-4.5,1.6-5.3,4.5
		c-0.1,0.3-0.5,0.7-0.8,0.9c-0.2,0.1-0.5,0-0.8,0c-2.2,0-4.4,0-6.8,0c0.1-4.9,2-8.6,5.8-11.2c4.6-3.2,9.6-3.5,14.5-0.7
		C108.8,63.1,111,67.1,111.2,72.5z"/>
	<path class="st0" d="M63.3,72.5c-2.4,0-4.9,0-7.3,0c-0.3,0-0.7-0.5-0.8-0.8c-0.9-3-2.6-4.5-5.3-4.5c-2.4-0.1-5,1.7-5.4,4.6
		c0,0.3-0.6,0.8-0.9,0.8c-2.4,0.1-4.8,0-7.4,0c0-4.6,1.8-8.1,5.3-10.8c4.6-3.5,10.7-3.9,15.4-0.9C61.2,63.3,64,68.4,63.3,72.5z"/>
</g>
</svg>
