<?xml version="1.0" encoding="utf-8"?>
<!-- Generator: Adobe Illustrator 26.0.1, SVG Export Plug-In . SVG Version: 6.00 Build 0)  -->
<svg version="1.1" id="Layer_1" xmlns="http://www.w3.org/2000/svg" xmlns:xlink="http://www.w3.org/1999/xlink" x="0px" y="0px"
	 viewBox="0 0 146.8 129.9" style="enable-background:new 0 0 146.8 129.9; fill:#fff;" xml:space="preserve">
<g>
	<path d="M136.7,65.2c0-0.7-0.7-1.7-1.3-2.1c-0.8-0.6-1.8-0.2-2.5,0.6c-0.1,0.1-0.3,0.3-0.4,0.4c-5.6,5.6-11.3,11.3-16.9,16.9
		c-4.1,4.1-8.2,8.2-12.2,12.2c-1.5,1.5-1.5,2.6,0,4.2c0.4,0.3,0.9,0.5,1.6,0.9c-3.1,3-5.7,5.6-8.4,8.2c-0.3,0.2-1.1,0.2-1.4,0
		c-3.7-1.9-7.6-2.8-11.7-2.5c-4.7,0.3-9,1.8-12.4,5.2c-4.5,4.5-4.5,10.8-0.1,15.3c6.8,6.9,20.2,7.2,27.3,0.6
		c2.7-2.5,4.5-5.6,3.8-9.5c-0.4-2.1-1.4-4-2.2-6c2.5-2.5,5.1-5.2,7.8-8c0.4,0.4,0.8,0.8,1.2,1.1c1.5,1.4,2.6,1.4,4,0
		c7.6-7.6,15.3-15.2,22.8-22.9c0.5-0.5,1-1.4,1-2.2C136.8,73.6,136.8,69.4,136.7,65.2z"/>
	<path d="M69.7,69.8c3.4-1.4,6.9,0.6,7.6,4.5c1.1,6.2,2.1,12.5,3.1,18.7c0.4,2.3,0.8,4.6,1.2,6.9c1.5-0.3,2.8-0.5,4.1-0.8
		c0-0.5,0-0.7-0.1-1c-1.2-7-2.3-14-3.5-21.1c-0.4-2.1-0.6-4.2-1.4-6.1c-1.7-4.3-5.8-6.4-10.5-5.9c-3.9,0.5-7.4,3.8-8.2,8
		c-0.6,3.4-1.1,6.8-1.7,10.3c-1.6,9.5-3.1,18.9-4.7,28.4c-0.5,3.2-2.6,5.1-5.5,5c-2.9,0-4.9-2-5.3-5.1c-1.7-12.4-3.4-24.9-5.1-37.3
		c-0.3-2.4-1-4.5-2.3-6.5c-3.2-5.2-5.6-10.7-7-16.6c-0.1-0.6-0.3-1.1-0.5-1.8c-1,0.2-2,0.4-2.9,0.6c-0.4,0.1-0.7,0.2-1.3,0.3
		c0.1,0.6,0.2,1,0.3,1.5c1.7,6.9,4.6,13.4,8.3,19.4c0.4,0.6,0.7,1.4,0.8,2.1c1.6,11.3,3.1,22.6,4.6,33.8c0.4,2.6,0.6,5.4,1.4,7.9
		c1.4,4.2,5.6,6.5,10,6.1c4.2-0.4,7.7-3.7,8.5-8.1c1.3-7.7,2.6-15.4,3.9-23.1c0.9-5.2,1.7-10.3,2.6-15.5
		C66.7,72.3,67.7,70.7,69.7,69.8z"/>
	<path d="M28.4,43.6c0.8-0.8,1.4-1.7,2.3-2.7c3.1,3.1,5.9,5.9,8.6,8.7c1.9,1.9,1.9,1.8,0.7,4.1c-0.2,0.5-0.5,1-0.7,1.5
		c-2.2,5.9,2.3,12.4,8.5,11.7c3.3-0.3,6.4-1.9,9.8-2.9c-0.6-1.6-1.2-2.9-1.7-4.3c-2.3,0.9-4.4,1.8-6.4,2.6c-2,0.8-3.9,0.4-5.2-1
		c-1.3-1.4-1.6-3.4-0.6-5.4c0.3-0.7,0.7-1.4,1-2.1c1.2-2.4,0.9-4-1-6c-1.2-1.2-2.4-2.5-3.7-3.7c-2.1-2-4.2-4-6.4-6.2
		c1-0.9,1.8-1.6,2.5-2.3c1.5-1.6,1.5-2.6,0-4.1c-2.1-2.2-4.3-4.3-6.6-6.5c1.5-2,1.6-2.8,0.3-4.1C23.7,14.5,17.4,7.9,11.2,1.3
		c-0.7-0.8-1.6-1.4-2.7-0.9C7.3,0.9,7,1.8,7,3c0,9,0,17.9,0.1,26.9c0,0.9,0.5,1.9,1.2,2.5c1.5,1.5,3.2,2.8,4.9,4.2
		c2.1,1.8,2.4,1.8,5,0.3c2.1,2.2,4.3,4.5,6.5,6.7C25.9,44.9,27.1,44.9,28.4,43.6z"/>
	<path d="M35.9,19.5c2.4-1.6,4.6-3.5,7.2-4.6c6-2.6,12-2.2,18.1,0.3c7.1,2.9,14.3,2.8,21.5,0c1.5-0.6,3-1.1,4.5-1.4
		c14.1-3.1,27.5,7.2,27.8,21.7c0.3,11.6-2.8,22.4-8.9,32.4c-1.4,2.2-2.2,4.5-2.3,7.1c0,0.4-0.1,0.8-0.2,1.3
		c-0.4,2.7-0.7,5.3-1.1,8.1c1.5,0.2,2.9,0.4,4.3,0.6c0.2-1.8,0.5-3.4,0.7-5c0.5-4.1,1.2-8,3.4-11.7c6.2-10.5,9.1-22,8.3-34.2
		c-0.7-10-5.9-17.5-14.8-22.1c-7.3-3.8-14.8-4-22.4-1c-6.8,2.7-13.5,2.8-20.2,0c-5-2.1-10.1-2.5-15.3-1.5c-5.9,1.1-11,3.9-15.1,8.5
		c1.1,1,2.1,1.9,3.5,3.2C35.2,20.4,35.4,19.8,35.9,19.5z"/>
</g>
</svg>
