<?xml version="1.0" encoding="utf-8"?>
<!-- Generator: Adobe Illustrator 26.0.1, SVG Export Plug-In . SVG Version: 6.00 Build 0)  -->
<svg version="1.1" id="Layer_1" xmlns="http://www.w3.org/2000/svg" xmlns:xlink="http://www.w3.org/1999/xlink" x="0px" y="0px"
	 viewBox="0 0 146.8 129.9" style="enable-background:new 0 0 146.8 129.9;" xml:space="preserve">
<style type="text/css">
	.st0{fill:#FFFFFF;}
</style>
<g>
	<path class="st0" d="M29.3,51.5H18.4c-1.9,0-3.4,1.9-3.4,4.2v13.2c0,2.3,1.5,4.2,3.4,4.2h10.9c1.9,0,3.4-1.9,3.4-4.2V55.7
		C32.7,53.3,31.2,51.5,29.3,51.5z"/>
	<path class="st0" d="M128.6,52.3h-10.9c-1.9,0-3.4,1.9-3.4,4.2v13.2c0,2.3,1.5,4.2,3.4,4.2h10.9c1.9,0,3.4-1.9,3.4-4.2V56.5
		C132,54.2,130.5,52.3,128.6,52.3z"/>
	<path class="st0" d="M141.1,43.2l-6.9-8.5c-4-5-13.3-5.4-18.1-0.8l-10,9.6c-2.4,2.3-3.8,5.7-3.8,9.2v6h-8.2v-8.3c0-3-1-5.8-2.8-8.1
		l-6.9-8.5c-4-5-13.3-5.4-18.1-0.8l-10,9.6c-2.4,2.3-3.8,5.7-3.8,9.2v6.8h-7.8v-8.3c0-3-1-5.8-2.8-8.1L35,33.8
		c-4-5-13.3-5.4-18.1-0.8l-10,9.6C4.4,45,3,48.4,3,51.9v25.9c0,5.4,5.8,9.7,12.9,9.7h15.8c7.1,0,12.9-4.4,12.9-9.7V65.7h7.8v12.1
		c0,5.4,5.8,9.7,12.9,9.7h15.8c7.1,0,12.9-4.4,12.9-9.7V65.7h8.2v12.9c0,5.4,5.8,9.7,12.9,9.7H131c7.1,0,12.9-4.4,12.9-9.7V51.3
		C143.9,48.3,143,45.4,141.1,43.2z M37.6,71.5c0,4.3-2.9,7.8-6.4,7.8H16.5c-3.5,0-6.4-3.5-6.4-7.8V53.7c0-4.3,2.9-7.8,6.4-7.8h14.7
		c3.5,0,6.4,3.5,6.4,7.8V71.5z M87,71.5c0,4.3-2.9,7.8-6.4,7.8H65.9c-3.5,0-6.4-3.5-6.4-7.8V53.7c0-4.3,2.9-7.8,6.4-7.8h14.7
		c3.5,0,6.4,3.5,6.4,7.8V71.5z M136.9,72.3c0,4.3-2.9,7.8-6.4,7.8h-14.7c-3.5,0-6.4-3.5-6.4-7.8V54.5c0-4.3,2.9-7.8,6.4-7.8h14.7
		c3.5,0,6.4,3.5,6.4,7.8V72.3z"/>
	<path class="st0" d="M78.7,51.5H67.8c-1.9,0-3.4,1.9-3.4,4.2v13.2c0,2.3,1.5,4.2,3.4,4.2h10.9c1.9,0,3.4-1.9,3.4-4.2V55.7
		C82.2,53.3,80.6,51.5,78.7,51.5z"/>
</g>
</svg>
