<?xml version="1.0" encoding="utf-8"?>
<!-- Generator: Adobe Illustrator 26.0.1, SVG Export Plug-In . SVG Version: 6.00 Build 0)  -->
<svg version="1.1" id="Layer_1" xmlns="http://www.w3.org/2000/svg" xmlns:xlink="http://www.w3.org/1999/xlink" x="0px" y="0px"
	 viewBox="0 0 146.8 129.9" style="enable-background:new 0 0 146.8 129.9; fill:#fff;" xml:space="preserve">
<path d="M37.4,51.4c-1.8-0.1-5.2-4.6-4.3-3.2c1.5,2.2,5.4,11.4,5.4,13.5c0,3.8-4.6,25-1.3,39.1c3.3,14.1,9.1,28.6,12.8,28.8
	c3.7,0.2,4.1-1.5,4.1-4.6s-1.1-30.3,1.7-35.7s8.9-9.4,14.3-9.9c5.4-0.6,13.4,4.6,15.4,9.9c1.9,5.1,1.9,32.9,2,35.7
	c0,0.2,0,0.3,0.1,0.5c0.3,1,1.3,4.3,3,4.2c2-0.2,15.2-13.8,16-32.3s-3.5-29.6-3.5-32.3s2.1-6.2,4.3-9.4c5.6-7.6,1.5-3.4,1.5-3.4
	s-26.2,0.6-26.9-2.1c-0.7-2.7-0.4-6.3-0.7-8.2c-0.2-1.9-1.7-5-4.1-5c-2.4,0-10.8,0.8-10.8,0.8s-4.8-0.6-4.8,2.1
	c0,2.7,0.4,6.9-1.3,9.9c-1.7,3.1-5,2.3-5,2.3L37.4,51.4z"/>
<path d="M59.7,43l0.1-1.5c0.3-3.4,3.2-6,6.7-5.9l0.1,0c0.3,0,0.7,0,1,0l6.4-0.8c0.3,0,0.6,0,0.9,0c0.5,0,1.1,0,1.6,0
	c3.4,0,6.2,2.6,6.5,5.9l0.2,2.6c0.3,3.6,2.8,6.1,6,6.3c1.9,0.1,4.1,0.1,6.7,0.1c0.2,0,0.4,0,0.6,0l6.6,0.5c3.1,0.3,6.1-0.9,8.2-2.2
	c1.2-0.7,2.1-1.9,2.6-3.2l5-13.2c0.3-0.7,0.4-1.4,0.4-2.2c0-9.1-4.6-13.9-6.1-15.6c-0.1-0.1-0.2-0.2-0.2-0.3l-3.1-3.1
	c-1.3-1.4-3.7-3.5-6.1-5c-2.4-1.5-5.3-2.2-8.2-1.9l-3.9,0.4c-0.6,0.1-1.1,0.2-1.7,0.4L76.5,9.3c-1.5,0.6-3.2,0.6-4.8,0L56.2,3
	c-0.7-0.3-1.5-0.4-2.2-0.5l-6-0.2c-0.8-0.1-1.8,0-2.9,0.2c-3.8,0.8-7.2,2.9-9.7,5.9l-3.5,4.1c-2.2,2.2-5.8,8.4-5.3,11.4l2.6,16.5
	c0.7,4.4,4.6,7.7,9.2,7.8l11.9,0.4c0.8,0,1.6,0.1,2.5,0.2C56.3,49.1,59.4,46.5,59.7,43z"/>
</svg>
