<?xml version="1.0" encoding="utf-8"?>
<!-- Generator: Adobe Illustrator 26.0.1, SVG Export Plug-In . SVG Version: 6.00 Build 0)  -->
<svg version="1.1" id="Layer_1" xmlns="http://www.w3.org/2000/svg" xmlns:xlink="http://www.w3.org/1999/xlink" x="0px" y="0px"
	 viewBox="0 0 146.8 129.9" style="enable-background:new 0 0 146.8 129.9;" xml:space="preserve">
<g>
	<path d="M7.4,8.7c0-2.1,0-4,0-6c0.4,0,0.7-0.1,1.1-0.1c5,0,10.1,0,15.1,0c2.4,0,3.2,0.6,3.9,3c2.1,7.7,4.2,15.4,6.3,23.1
		c0.3,1,0.7,1.3,1.7,1.3c20.9,0,41.8,0,62.7,0c11.8,0,23.6,0,35.4,0c3,0,4.3,1.6,3.5,4.6c-4.3,16.1-8.6,32.3-13,48.4
		c-1.7,6.1-6.2,9.5-12.5,9.5c-18.9,0-37.8,0-56.7,0c-1.2,0-2.3-0.1-3.7-0.2c0.7,2.5,1.3,4.9,2,7.6c0.7,0,1.4,0,2.1,0
		c18.9,0,37.9,0,56.8,0c6,0,10.4,2.9,12.8,8.3c2.4,5.3,1.6,10.3-2.1,14.8c-4.2,5.2-12.2,6.4-18,2.8c-5.8-3.6-8.2-11-5.5-17.2
		c0.4-0.8,0.8-1.6,1.2-2.5c-11.7,0-23.4,0-35.1,0c0.3,0.5,0.5,1,0.7,1.4c3.4,6.5,1.1,14.8-5.2,18.5c-6.6,3.8-14.9,1.9-19-4.5
		c-4-6.2-2.5-14.5,3.6-18.8c1.2-0.9,1.5-1.6,1.1-3C40.7,78.2,34.8,56.7,29,35.3c-2.3-8.4-4.5-16.9-6.6-25.3
		c-0.2-0.9-0.6-1.3-1.6-1.2c-3.9,0.1-7.8,0-11.7,0C8.6,8.7,8.1,8.7,7.4,8.7z M35.7,36.3c0.1,0.4,0.1,0.7,0.2,1
		C40,52.1,44.1,67,48.2,81.9c0.9,3.2,2.9,4.7,6.3,4.7c19.1,0,38.1,0,57.2,0c3.7,0,5.6-1.6,6.5-5.2c3.1-11.5,6.2-23,9.2-34.5
		c0.9-3.5,1.8-7.1,2.8-10.7C98.7,36.3,67.2,36.3,35.7,36.3z M120.2,113.9c0-4.4-3.6-8-7.9-8c-4.4,0-8.1,3.6-8.1,8c0,4.4,3.6,7.9,8,8
		C116.6,122,120.2,118.4,120.2,113.9z M53.7,121.9c4.4,0,8.1-3.6,8-8.1c0-4.3-3.7-7.9-8-7.9c-4.4,0-8,3.6-8,7.9
		C45.7,118.4,49.2,121.9,53.7,121.9z"/>
</g>
</svg>
